<svg version="1.1" id="Layer_1" xmlns="http://www.w3.org/2000/svg" xmlns:xlink="http://www.w3.org/1999/xlink" x="0px" y="0px"
	 width="100%" viewBox="0 0 554 438" enable-background="new 0 0 554 438" xml:space="preserve">
<path fill="#FFFFFF" opacity="1.000000" stroke="none" 
	d="
M356.000000,439.000000 
	C237.333359,439.000000 119.166725,439.000000 1.000063,439.000000 
	C1.000042,293.000061 1.000042,147.000122 1.000021,1.000142 
	C185.666565,1.000095 370.333130,1.000095 554.999756,1.000047 
	C554.999878,146.999863 554.999878,292.999725 554.999939,438.999786 
	C488.833344,439.000000 422.666656,439.000000 356.000000,439.000000 
M103.374786,141.358429 
	C101.244690,148.903824 99.114594,156.449203 96.479156,164.525452 
	C93.585968,174.657181 90.692787,184.788925 87.279762,195.450409 
	C85.083054,203.596054 82.886353,211.741684 80.237587,220.454819 
	C79.826927,222.077911 79.416275,223.701004 78.862305,225.890564 
	C90.953850,225.890564 102.180374,225.890564 113.253357,226.712723 
	C113.000687,227.842514 112.805199,228.988708 112.486671,230.099609 
	C108.384956,244.404510 104.265694,258.704407 99.930580,273.734436 
	C96.540207,285.467651 93.149834,297.200836 89.268906,309.457672 
	C86.419838,319.844604 83.570778,330.231506 80.265259,341.203979 
	C77.224953,351.136932 74.184647,361.069885 71.018600,371.805939 
	C70.700996,373.376038 70.383392,374.946136 69.862457,377.521484 
	C86.600128,377.521484 102.797646,377.521484 119.909805,377.765839 
	C131.612900,377.682495 143.315979,377.599121 155.926422,377.737213 
	C168.291000,377.660583 180.655594,377.583984 193.926697,377.731354 
	C205.290237,377.655426 216.653778,377.579498 228.923553,377.730499 
	C242.956360,377.654053 256.989166,377.577576 271.927643,377.727509 
	C287.616974,377.649109 303.306305,377.570679 319.906982,377.743225 
	C337.604248,377.658661 355.301514,377.574127 373.909576,377.739685 
	C404.054260,377.774902 434.199097,377.850830 464.343048,377.718445 
	C465.767273,377.712158 468.087250,376.117310 468.463409,374.819702 
	C472.195374,361.945465 475.605225,348.977814 479.711548,335.602081 
	C481.794891,328.401581 483.878235,321.201080 486.083801,313.239105 
	C488.104279,306.503143 490.124725,299.767151 492.631989,292.512146 
	C494.900970,284.408295 497.169952,276.304474 499.838593,267.602875 
	C502.629456,257.760101 505.420319,247.917297 508.684448,237.526245 
	C511.016907,229.707733 513.387817,221.900330 515.656921,214.063461 
	C516.283936,211.897736 516.230103,209.927063 512.086670,210.257034 
	C497.395233,210.330246 482.703796,210.403442 467.097900,210.231812 
	C455.397888,210.307510 443.697876,210.383209 431.086182,210.219147 
	C410.741974,210.123138 390.397736,210.027130 370.161591,209.196732 
	C374.169586,195.151917 378.177612,181.107101 382.662476,166.522720 
	C385.816864,155.356506 388.971222,144.190308 392.622284,132.503830 
	C395.719147,121.669968 398.816010,110.836098 402.056488,99.232086 
	C403.489441,94.355003 404.934631,89.481468 406.352112,84.599899 
	C407.954102,79.082924 409.531250,73.558739 411.622375,67.509644 
	C412.413391,64.576584 413.204407,61.643520 414.060608,58.468872 
	C393.545166,58.468872 373.782837,58.468872 353.104248,58.225159 
	C347.470612,58.193890 341.836700,58.112541 336.203369,58.140759 
	C319.474274,58.224548 302.745422,58.351479 285.100098,58.221539 
	C267.405518,58.297844 249.710953,58.374149 231.099060,58.214634 
	C212.078293,58.277946 193.057526,58.341255 173.113205,58.182121 
	C159.134430,58.154018 145.154694,58.046322 131.178238,58.213207 
	C129.677048,58.231133 127.240250,59.546597 126.856422,60.768654 
	C124.027664,69.775040 121.610451,78.910690 118.733986,88.689407 
	C115.717308,99.431175 112.700638,110.172943 109.229332,121.443085 
	C107.441086,127.896446 105.652832,134.349808 103.374786,141.358429 
z"/>
<path fill="#B7E19F" opacity="1.000000" stroke="none" 
	d="
M89.759460,308.934052 
	C93.149834,297.200836 96.540207,285.467651 100.437469,273.368164 
	C102.706985,272.634003 104.549202,272.480652 106.218643,271.861481 
	C113.966278,268.987946 121.640114,265.915405 129.387512,263.041138 
	C159.255875,251.960144 189.154373,240.960144 218.988159,229.787125 
	C220.576035,229.192459 221.674377,227.290619 223.469162,225.992340 
	C231.961807,225.966660 239.985901,225.945969 248.477295,225.945374 
	C267.296387,225.976212 285.648193,225.986969 303.948792,226.342636 
	C301.909119,228.090912 300.097900,229.938446 297.899506,230.815796 
	C290.829681,233.637314 283.595306,236.042892 276.463623,238.713684 
	C258.988495,245.258102 241.584244,251.995773 224.045303,258.363281 
	C218.357620,260.428162 212.340378,261.585327 206.330627,262.835205 
	C205.481796,261.717590 204.799316,260.257233 204.066986,260.231812 
	C197.829559,260.014984 191.418991,259.155182 185.380463,260.251465 
	C177.687698,261.648071 174.913895,269.174774 178.557159,276.169952 
	C179.507065,277.993805 180.779633,279.649658 181.949249,281.452393 
	C174.132935,284.238464 174.132935,284.238464 175.596252,291.037567 
	C173.866272,291.381622 172.490112,291.686890 170.910980,291.675415 
	C169.509369,285.834595 167.334030,280.918671 161.934479,278.256012 
	C147.411041,271.094177 132.324768,278.973572 129.423157,295.003906 
	C124.342064,296.856293 119.679474,298.845612 114.904182,300.511963 
	C106.559120,303.423950 98.144775,306.137421 89.759460,308.934052 
z"/>
<path fill="#ABD9A3" opacity="1.000000" stroke="none" 
	d="
M354.020477,58.468872 
	C373.782837,58.468872 393.545166,58.468872 414.060608,58.468872 
	C413.204407,61.643520 412.413391,64.576584 410.992889,67.795135 
	C408.956482,68.561142 407.468719,68.882065 406.155243,69.547134 
	C394.511963,75.442650 382.925079,81.449699 371.271851,87.325302 
	C355.547943,95.253380 339.801056,103.136848 324.015656,110.941544 
	C320.210754,112.822746 316.215637,114.319084 312.201721,115.618523 
	C310.376678,107.518906 303.482513,104.817352 294.955353,108.484406 
	C291.913544,109.792526 289.844635,111.236328 289.891235,115.330956 
	C289.935638,119.228699 291.268921,120.993011 294.969635,121.211296 
	C294.969635,124.757263 294.969635,127.877831 294.605072,131.003235 
	C292.839142,131.338028 291.437775,131.667999 289.945770,131.622772 
	C288.785522,129.182465 288.242798,126.236679 286.545288,125.221115 
	C281.880615,122.430397 276.980225,124.237068 274.391052,129.090530 
	C273.208862,131.306534 272.339508,133.689438 271.196625,136.296982 
	C270.737732,135.602692 270.551117,135.450012 270.570587,135.331055 
	C271.316528,130.772446 270.967529,126.671280 265.911346,124.692009 
	C262.100708,123.200302 253.360992,124.734550 252.609894,127.576820 
	C251.520966,131.697586 250.841019,136.341858 256.134521,138.910248 
	C256.773743,139.220413 256.924103,140.968475 256.937927,142.054718 
	C256.975800,145.032364 256.820038,148.012466 256.342438,150.993484 
	C253.340210,151.328552 250.736450,151.661743 248.081818,151.534119 
	C248.024750,149.417297 248.018463,147.761261 248.012360,146.105225 
	C247.963562,132.858276 244.327301,127.857170 232.034271,123.727402 
	C233.918564,121.818932 235.552551,119.832672 237.654312,118.783401 
	C255.160233,110.043900 272.754913,101.482330 290.317749,92.856689 
	C308.385468,83.983101 326.558533,75.311615 344.415161,66.031525 
	C347.851379,64.245720 353.156158,63.880501 354.020477,58.468872 
z"/>
<path fill="#B2DDA0" opacity="1.000000" stroke="none" 
	d="
M353.562378,58.347015 
	C353.156158,63.880501 347.851379,64.245720 344.415161,66.031525 
	C326.558533,75.311615 308.385468,83.983101 290.317749,92.856689 
	C272.754913,101.482330 255.160233,110.043900 237.654312,118.783401 
	C235.552551,119.832672 233.918564,121.818932 231.583313,123.743980 
	C221.976852,123.513222 213.917664,125.302597 208.523727,133.979675 
	C206.117645,134.325806 204.100983,134.662308 202.057007,134.582031 
	C202.366943,130.903625 202.680817,127.639404 203.045670,124.380890 
	C204.283005,113.330154 201.734390,110.246918 191.061371,109.509888 
	C192.760910,108.112251 194.310135,106.879463 196.041946,106.010521 
	C224.566971,91.697876 253.133209,77.467102 281.614410,63.068043 
	C283.401337,62.164635 284.563599,60.025684 286.016479,58.461548 
	C302.745422,58.351479 319.474274,58.224548 336.203369,58.140759 
	C341.836700,58.112541 347.470612,58.193890 353.562378,58.347015 
z"/>
<path fill="#A8D7A3" opacity="1.000000" stroke="none" 
	d="
M118.995148,377.521484 
	C102.797646,377.521484 86.600128,377.521484 69.862457,377.521484 
	C70.383392,374.946136 70.700996,373.376038 71.465881,371.394409 
	C74.791580,370.214081 77.753525,369.671021 80.535522,368.641632 
	C109.000694,358.109253 137.432770,347.487427 165.888580,336.929657 
	C168.032532,336.134186 170.287430,335.637695 172.691589,335.325867 
	C175.899643,340.762177 180.923615,340.100128 185.577133,339.736938 
	C190.227631,339.373962 193.872101,336.810516 194.830154,332.098145 
	C195.973846,326.472748 196.402008,320.701874 197.524521,314.987244 
	C201.020020,313.951416 204.152924,312.983368 207.238022,311.881439 
	C215.446228,308.949554 223.633850,305.960022 231.897202,303.457336 
	C232.026764,308.580200 231.945618,313.246643 232.189911,317.895966 
	C232.448975,322.826294 236.225128,324.803894 243.010651,323.817352 
	C248.554550,323.011322 249.627182,321.410156 248.369080,315.818481 
	C246.749237,308.619080 250.419891,297.994904 256.234741,294.151825 
	C255.982941,298.104034 255.431122,301.731659 255.595367,305.326630 
	C255.864243,311.211334 256.598907,317.074768 256.761658,322.994324 
	C239.051147,329.610931 221.722809,336.198181 204.378998,342.744415 
	C189.037155,348.535034 173.686279,354.301910 158.323914,360.037872 
	C146.388229,364.494354 134.393997,368.797913 122.523796,373.421082 
	C121.040291,373.998871 120.156700,376.117035 118.995148,377.521484 
z"/>
<path fill="#9BCFA8" opacity="1.000000" stroke="none" 
	d="
M492.145203,293.031189 
	C490.124725,299.767151 488.104279,306.503143 485.603699,313.619568 
	C476.793427,316.646881 468.344208,318.971680 460.154877,321.999420 
	C432.604462,332.185150 405.146515,342.620911 377.653290,352.961395 
	C359.168945,359.913574 340.667694,366.821594 322.236450,373.911835 
	C320.895508,374.427643 320.063995,376.267822 318.995636,377.492279 
	C303.306305,377.570679 287.616974,377.649109 271.482422,377.287933 
	C272.352417,375.742676 273.493469,374.183990 275.009644,373.601227 
	C290.585449,367.614563 306.206970,361.745392 321.846741,355.926880 
	C333.301819,351.665253 344.816833,347.564819 356.280365,343.325562 
	C369.307587,338.508057 382.350006,333.724945 395.277374,328.650635 
	C397.465729,327.791626 399.107513,325.540161 401.415283,323.906982 
	C409.701202,323.609589 415.005066,319.921906 416.408966,313.994507 
	C418.180725,313.661041 419.587219,313.331604 421.262756,313.202026 
	C426.642853,324.327637 441.091064,326.530640 450.566467,320.487061 
	C458.014465,315.736542 458.303070,314.688049 454.148438,306.859863 
	C463.524597,303.039581 472.673462,299.455444 481.889526,296.053223 
	C485.225342,294.821808 488.721954,294.025848 492.145203,293.031189 
z"/>
<path fill="#ABD9A3" opacity="1.000000" stroke="none" 
	d="
M468.012360,210.476624 
	C482.703796,210.403442 497.395233,210.330246 512.532532,210.702271 
	C511.453491,212.439789 510.127869,214.233307 508.367462,214.933090 
	C502.380585,217.312943 496.197968,219.194626 490.166382,221.468903 
	C471.273102,228.592819 452.432068,235.855316 433.538757,242.979202 
	C403.332520,254.368744 373.100525,265.689972 342.490356,276.959290 
	C340.137207,276.601227 338.159546,276.016785 336.211426,276.102478 
	C329.584290,276.394043 325.444489,278.222198 325.520813,284.997925 
	C324.514923,284.997925 323.844330,284.996918 323.109131,284.615967 
	C322.599121,279.613373 319.857422,277.062439 315.481842,276.299927 
	C310.660217,275.459656 305.531586,276.054688 302.857697,280.107910 
	C301.489471,282.181915 303.033234,286.376465 303.703705,289.518127 
	C304.081970,291.290375 305.896210,292.805420 306.108612,294.552460 
	C306.444550,297.315186 305.978363,300.175415 305.464111,302.996887 
	C301.342712,303.990234 297.608856,304.981049 293.900085,305.569092 
	C295.823975,296.672485 297.862518,288.176819 293.779907,279.408356 
	C298.320923,277.074707 302.574280,274.827972 307.043671,273.159943 
	C350.270813,257.026947 393.539429,241.005157 436.782959,224.916046 
	C445.634644,221.622696 454.481873,218.304199 463.212463,214.709000 
	C465.077148,213.941132 466.425903,211.920258 468.012360,210.476624 
z"/>
<path fill="#B7E19E" opacity="1.000000" stroke="none" 
	d="
M285.558289,58.341545 
	C284.563599,60.025684 283.401337,62.164635 281.614410,63.068043 
	C253.133209,77.467102 224.566971,91.697876 196.041946,106.010521 
	C194.310135,106.879463 192.760910,108.112251 190.688080,109.598274 
	C186.901245,111.705315 183.553085,113.389832 179.775146,115.051880 
	C177.918015,115.019035 176.490707,115.008667 174.822083,114.748520 
	C169.679214,108.897072 163.519272,109.040909 157.210098,111.053345 
	C154.411377,111.946053 150.877228,112.468185 150.978989,116.946091 
	C151.068573,120.889336 152.102081,123.731934 157.136948,123.872353 
	C155.745605,134.636230 154.400909,145.039261 153.056229,155.442276 
	C151.572556,152.132187 151.456970,148.840088 150.988312,145.599060 
	C149.731354,136.906357 148.608322,128.177841 146.867691,119.577774 
	C145.832565,114.463371 142.950745,110.362946 137.048904,109.455231 
	C138.350632,108.125778 139.475418,106.890053 140.869766,106.195267 
	C147.368317,102.957062 153.993698,99.972183 160.476364,96.703606 
	C172.396729,90.693329 184.203003,84.456017 196.142792,78.485260 
	C207.043488,73.034149 218.093872,67.881798 228.976105,62.395130 
	C230.312698,61.721233 231.018326,59.795860 232.016357,58.450447 
	C249.710953,58.374149 267.405518,58.297844 285.558289,58.341545 
z"/>
<path fill="#A7D7A4" opacity="1.000000" stroke="none" 
	d="
M342.879425,277.040100 
	C373.100525,265.689972 403.332520,254.368744 433.538757,242.979202 
	C452.432068,235.855316 471.273102,228.592819 490.166382,221.468903 
	C496.197968,219.194626 502.380585,217.312943 508.367462,214.933090 
	C510.127869,214.233307 511.453491,212.439789 512.986938,210.814529 
	C516.230103,209.927063 516.283936,211.897736 515.656921,214.063461 
	C513.387817,221.900330 511.016907,229.707733 508.038025,237.781021 
	C501.776031,239.940903 496.108582,241.706680 490.553772,243.775024 
	C465.120056,253.245270 439.727936,262.827484 414.273621,272.241638 
	C413.048279,272.694824 411.374542,271.935394 410.078217,271.422729 
	C413.186310,265.786316 411.990631,260.644836 407.130859,259.364838 
	C404.496063,258.670898 401.314026,258.374603 398.842621,259.233429 
	C396.569977,260.023193 393.685852,262.382355 393.319580,264.448669 
	C392.903778,266.794312 394.270844,270.727631 396.153870,271.903870 
	C398.814758,273.565979 402.659515,273.332886 405.991943,274.319458 
	C405.958038,275.274261 405.930298,275.819580 405.472229,276.303040 
	C393.256409,275.457062 388.524994,279.164612 389.641449,287.991577 
	C388.138123,287.993652 387.044830,287.991882 385.948914,287.538116 
	C386.141144,277.698883 386.147186,277.655212 376.964539,276.388062 
	C374.674255,276.072021 372.331512,276.044525 370.012695,276.041901 
	C355.741913,276.025696 349.151917,286.489288 355.037292,299.890198 
	C351.439087,301.792999 347.989014,303.341644 344.621643,304.475098 
	C345.389832,300.677094 346.428772,297.320557 346.682617,293.905640 
	C347.123901,287.968384 349.142883,281.520569 342.879425,277.040100 
z"/>
<path fill="#98CEA9" opacity="1.000000" stroke="none" 
	d="
M319.451294,377.617737 
	C320.063995,376.267822 320.895508,374.427643 322.236450,373.911835 
	C340.667694,366.821594 359.168945,359.913574 377.653290,352.961395 
	C405.146515,342.620911 432.604462,332.185150 460.154877,321.999420 
	C468.344208,318.971680 476.793427,316.646881 485.542572,314.000305 
	C483.878235,321.201080 481.794891,328.401581 479.011963,335.813049 
	C476.565125,336.511566 474.770111,336.871735 473.077820,337.505951 
	C452.317749,345.286469 431.569275,353.097961 410.825134,360.920868 
	C399.209381,365.301361 387.583954,369.658783 376.032501,374.203522 
	C374.783600,374.694824 373.998840,376.365814 372.998779,377.489563 
	C355.301514,377.574127 337.604248,377.658661 319.451294,377.617737 
z"/>
<path fill="#BDE49D" opacity="1.000000" stroke="none" 
	d="
M223.000610,225.997314 
	C221.674377,227.290619 220.576035,229.192459 218.988159,229.787125 
	C189.154373,240.960144 159.255875,251.960144 129.387512,263.041138 
	C121.640114,265.915405 113.966278,268.987946 106.218643,271.861481 
	C104.549202,272.480652 102.706985,272.634003 100.547623,273.003723 
	C104.265694,258.704407 108.384956,244.404510 112.486671,230.099609 
	C112.805199,228.988708 113.000687,227.842514 113.502075,226.299255 
	C113.750793,225.885773 114.100029,225.849442 114.556030,225.899963 
	C133.241043,225.963333 151.470123,226.002609 169.698944,225.946884 
	C171.465073,225.941483 173.229401,225.348007 175.409637,225.078812 
	C177.940826,225.414047 180.055618,225.931580 182.173340,225.943939 
	C195.782059,226.023392 209.391449,225.992172 223.000610,225.997314 
z"/>
<path fill="#BCE49D" opacity="1.000000" stroke="none" 
	d="
M231.557709,58.332539 
	C231.018326,59.795860 230.312698,61.721233 228.976105,62.395130 
	C218.093872,67.881798 207.043488,73.034149 196.142792,78.485260 
	C184.203003,84.456017 172.396729,90.693329 160.476364,96.703606 
	C153.993698,99.972183 147.368317,102.957062 140.869766,106.195267 
	C139.475418,106.890053 138.350632,108.125778 136.639557,109.513245 
	C132.413635,111.607292 128.649811,113.300423 124.514969,115.001320 
	C119.323952,116.977638 114.503967,118.946175 109.683975,120.914719 
	C112.700638,110.172943 115.717308,99.431175 119.252945,88.305641 
	C122.143745,86.792191 124.533798,85.699036 126.884453,84.526863 
	C141.278015,77.349304 155.696945,70.220680 170.004044,62.874397 
	C171.673233,62.017311 172.707916,59.924500 174.036758,58.404572 
	C193.057526,58.341255 212.078293,58.277946 231.557709,58.332539 
z"/>
<path fill="#ACDAA2" opacity="1.000000" stroke="none" 
	d="
M172.490753,335.002197 
	C170.287430,335.637695 168.032532,336.134186 165.888580,336.929657 
	C137.432770,347.487427 109.000694,358.109253 80.535522,368.641632 
	C77.753525,369.671021 74.791580,370.214081 71.528748,370.992859 
	C74.184647,361.069885 77.224953,351.136932 80.720978,341.231812 
	C82.393120,341.197998 83.713509,341.423279 84.808571,341.026550 
	C90.547516,338.947357 96.234947,336.725006 101.929939,334.525635 
	C113.809120,329.937897 125.681831,325.333405 137.884644,320.837219 
	C152.787445,328.053284 167.446259,322.066559 170.548996,307.295532 
	C171.583206,302.372070 170.972626,297.103149 171.113953,291.992126 
	C172.490112,291.686890 173.866272,291.381622 175.836838,291.319458 
	C178.110825,292.218323 179.790405,292.874084 182.182220,293.807953 
	C182.182220,304.682159 182.182220,315.837830 182.182220,327.033173 
	C173.898178,326.321564 173.566452,326.589783 172.582718,334.511475 
	C172.562256,334.676300 172.521851,334.838684 172.490753,335.002197 
z"/>
<path fill="#ADDBA2" opacity="1.000000" stroke="none" 
	d="
M467.555115,210.354218 
	C466.425903,211.920258 465.077148,213.941132 463.212463,214.709000 
	C454.481873,218.304199 445.634644,221.622696 436.782959,224.916046 
	C393.539429,241.005157 350.270813,257.026947 307.043671,273.159943 
	C302.574280,274.827972 298.320923,277.074707 293.501404,279.160980 
	C280.797211,271.056824 275.544495,279.512848 270.811401,289.834686 
	C268.870392,279.759094 268.870392,279.759094 263.861084,276.279541 
	C268.675537,273.854034 273.348236,271.697632 278.144958,269.866180 
	C291.763367,264.666473 305.433228,259.601440 319.081390,254.479523 
	C329.947601,250.401642 340.803040,246.295074 351.679199,242.243958 
	C361.607697,238.545822 371.559204,234.909424 381.497589,231.237885 
	C393.465332,226.816620 405.500153,222.564621 417.362915,217.877487 
	C422.427612,215.876358 427.130554,212.959579 431.997864,210.458893 
	C443.697876,210.383209 455.397888,210.307510 467.555115,210.354218 
z"/>
<path fill="#A9D8A4" opacity="1.000000" stroke="none" 
	d="
M114.100021,225.849442 
	C114.100029,225.849442 113.750793,225.885773 113.578842,225.888168 
	C102.180374,225.890564 90.953850,225.890564 78.862305,225.890564 
	C79.416275,223.701004 79.826927,222.077911 80.855270,220.181641 
	C93.134918,214.281357 104.834755,208.731140 116.449547,203.008286 
	C131.918259,195.386551 147.455963,187.883636 162.661819,179.763718 
	C166.739548,177.586227 172.628113,177.243851 174.620605,171.475189 
	C185.530014,172.624512 187.327393,171.665527 192.228867,162.435013 
	C192.843384,161.277695 193.505188,160.145477 194.528809,159.000412 
	C198.875229,157.668091 202.837921,156.337006 206.896118,155.376740 
	C209.014282,163.424591 212.384033,169.886093 221.109131,171.846619 
	C219.948776,173.365524 219.051880,174.905014 217.718689,175.570343 
	C199.156952,184.833817 180.494659,193.896561 161.964218,203.221512 
	C158.406677,205.011765 155.309937,207.717712 151.531891,210.004456 
	C141.457870,210.008133 131.850433,210.120712 122.248558,209.939285 
	C119.440994,209.886246 117.937737,210.741348 117.289940,213.446915 
	C116.296097,217.597733 115.169998,221.716858 114.100021,225.849442 
z"/>
<path fill="#9BCFA8" opacity="1.000000" stroke="none" 
	d="
M392.125610,133.024094 
	C388.971222,144.190308 385.816864,155.356506 382.044373,166.801956 
	C370.929413,172.225113 360.434082,177.372070 349.935394,182.512192 
	C335.308441,189.673477 320.633484,196.739304 306.088531,204.063400 
	C303.142487,205.546875 300.683533,207.997635 297.531433,210.005936 
	C290.039886,210.025208 283.016876,210.040985 275.525848,210.044067 
	C267.704987,210.022522 260.352142,210.013687 253.051361,209.658691 
	C254.701202,208.223450 256.199463,206.936417 257.911896,206.075333 
	C279.089417,195.426468 300.320862,184.884338 321.459137,174.158539 
	C323.297607,173.225662 324.575592,171.188187 326.475525,169.790894 
	C330.658478,172.150360 334.922485,173.119156 338.630341,170.640640 
	C341.881042,168.467682 344.315033,165.072876 346.802704,162.531479 
	C346.732056,174.081818 353.236725,173.366287 360.862579,169.650284 
	C362.175171,169.010681 363.234985,167.865906 364.448792,167.007080 
	C367.233826,165.036469 367.000244,162.166534 365.530731,160.001877 
	C364.524231,158.519257 361.996277,158.069534 360.081696,157.089325 
	C360.014954,157.020569 359.876678,156.887848 359.827209,156.452911 
	C360.170868,152.679092 360.564026,149.340210 361.351624,146.000443 
	C368.979065,142.681152 376.180206,139.290436 383.461212,136.080963 
	C386.255554,134.849213 389.232086,134.030838 392.125610,133.024094 
z"/>
<path fill="#9ED1A7" opacity="1.000000" stroke="none" 
	d="
M401.001831,323.932007 
	C399.107513,325.540161 397.465729,327.791626 395.277374,328.650635 
	C382.350006,333.724945 369.307587,338.508057 356.280365,343.325562 
	C344.816833,347.564819 333.301819,351.665253 321.846741,355.926880 
	C306.206970,361.745392 290.585449,367.614563 275.009644,373.601227 
	C273.493469,374.183990 272.352417,375.742676 271.029602,377.174744 
	C256.989166,377.577576 242.956360,377.654053 228.479187,377.291077 
	C231.988464,374.749176 235.778763,372.225677 239.924118,370.617340 
	C257.516724,363.791718 275.213593,357.234772 292.874573,350.585480 
	C303.890442,346.438019 314.923035,342.334625 325.924774,338.150085 
	C338.459259,333.382538 350.967804,328.546753 363.907410,323.735535 
	C366.821075,323.776489 369.330048,324.021545 371.806183,323.833527 
	C381.549805,323.093750 386.453094,318.304688 387.592468,308.999023 
	C390.005554,308.665527 392.032593,308.333130 394.118225,308.448395 
	C394.162201,310.728241 394.034210,312.567963 394.155273,314.391083 
	C394.458435,318.957092 395.666534,322.945221 401.001831,323.932007 
z"/>
<path fill="#B1DCA3" opacity="1.000000" stroke="none" 
	d="
M431.542023,210.339020 
	C427.130554,212.959579 422.427612,215.876358 417.362915,217.877487 
	C405.500153,222.564621 393.465332,226.816620 381.497589,231.237885 
	C371.559204,234.909424 361.607697,238.545822 351.679199,242.243958 
	C340.803040,246.295074 329.947601,250.401642 319.081390,254.479523 
	C305.433228,259.601440 291.763367,264.666473 278.144958,269.866180 
	C273.348236,271.697632 268.675537,273.854034 263.445923,276.215149 
	C254.175232,275.264496 252.220291,276.779449 246.134720,289.595612 
	C245.961868,278.128723 245.179199,276.951050 237.070160,275.509766 
	C237.632370,274.775299 238.064270,274.225098 238.624725,274.010376 
	C250.364441,269.512451 262.109283,265.027466 273.872437,260.591187 
	C289.645325,254.642700 305.416199,248.687927 321.222809,242.829941 
	C333.496704,238.281204 345.846741,233.936920 358.098389,229.330170 
	C359.603302,228.764313 360.709198,227.137253 362.401245,225.994873 
	C363.843109,225.442612 365.580627,225.100708 365.808838,224.318497 
	C367.086487,219.938904 367.999756,215.452988 369.258362,210.879868 
	C369.670654,210.481277 369.862091,210.206192 370.053528,209.931107 
	C390.397736,210.027130 410.741974,210.123138 431.542023,210.339020 
z"/>
<path fill="#A0D2A5" opacity="1.000000" stroke="none" 
	d="
M363.487640,323.740662 
	C350.967804,328.546753 338.459259,333.382538 325.924774,338.150085 
	C314.923035,342.334625 303.890442,346.438019 292.874573,350.585480 
	C275.213593,357.234772 257.516724,363.791718 239.924118,370.617340 
	C235.778763,372.225677 231.988464,374.749176 228.026077,377.177612 
	C216.653778,377.579498 205.290237,377.655426 193.476593,377.290955 
	C194.585861,375.305878 195.870865,373.039337 197.746384,372.326447 
	C220.363800,363.729675 243.081757,355.397980 265.746704,346.925537 
	C287.912170,338.639893 310.046844,330.271790 332.527191,322.079285 
	C337.477753,325.379700 341.905640,323.914337 345.630798,320.906799 
	C347.644806,319.280823 349.755920,316.265137 349.658203,313.968475 
	C349.564972,311.777802 346.661041,309.706757 344.992706,307.583099 
	C344.590546,307.784515 344.188416,307.985962 343.786255,308.187378 
	C344.037140,307.088348 344.288055,305.989349 344.538940,304.890320 
	C347.989014,303.341644 351.439087,301.792999 355.316742,300.104004 
	C361.423401,303.818848 367.102509,307.674011 372.781586,311.529205 
	C372.640289,311.921356 372.498962,312.313507 372.357666,312.705658 
	C368.428680,311.740753 364.335510,311.185730 360.616852,309.695892 
	C356.887512,308.201752 355.359039,309.668274 354.379425,312.803131 
	C353.251495,316.412384 354.127655,319.359070 357.634949,321.151276 
	C359.531586,322.120514 361.533325,322.884216 363.487640,323.740662 
z"/>
<path fill="#94CBAB" opacity="1.000000" stroke="none" 
	d="
M373.454163,377.614624 
	C373.998840,376.365814 374.783600,374.694824 376.032501,374.203522 
	C387.583954,369.658783 399.209381,365.301361 410.825134,360.920868 
	C431.569275,353.097961 452.317749,345.286469 473.077820,337.505951 
	C474.770111,336.871735 476.565125,336.511566 478.709290,336.030334 
	C475.605225,348.977814 472.195374,361.945465 468.463409,374.819702 
	C468.087250,376.117310 465.767273,377.712158 464.343048,377.718445 
	C434.199097,377.850830 404.054260,377.774902 373.454163,377.614624 
z"/>
<path fill="#A5D5A4" opacity="1.000000" stroke="none" 
	d="
M312.307983,115.992409 
	C316.215637,114.319084 320.210754,112.822746 324.015656,110.941544 
	C339.801056,103.136848 355.547943,95.253380 371.271851,87.325302 
	C382.925079,81.449699 394.511963,75.442650 406.155243,69.547134 
	C407.468719,68.882065 408.956482,68.561142 410.741333,68.059158 
	C409.531250,73.558739 407.954102,79.082924 406.352112,84.599899 
	C404.934631,89.481468 403.489441,94.355003 401.612671,99.622581 
	C395.037811,102.857780 388.919464,105.730232 382.772400,108.539909 
	C375.738678,111.754845 368.679443,114.913979 361.461853,117.775391 
	C360.651581,112.722038 359.781403,107.606628 353.948242,107.271347 
	C349.454071,107.013039 344.694733,107.912453 340.408905,109.354187 
	C338.903442,109.860626 337.949310,113.446800 337.657898,115.742775 
	C337.322113,118.388130 339.029297,120.096581 341.971283,119.808960 
	C347.714874,119.247414 347.450073,122.765999 346.853821,126.936287 
	C344.776062,126.197632 342.953949,125.458885 341.078430,124.898773 
	C332.756531,122.413452 325.896942,125.122520 322.759979,133.130920 
	C320.805664,138.120193 320.336761,143.691330 318.813660,149.032501 
	C315.335693,150.040680 312.245239,151.017685 309.124939,151.585510 
	C310.166077,139.448364 311.237030,127.720383 312.307983,115.992409 
z"/>
<path fill="#A3D4A5" opacity="1.000000" stroke="none" 
	d="
M332.195007,321.939850 
	C310.046844,330.271790 287.912170,338.639893 265.746704,346.925537 
	C243.081757,355.397980 220.363800,363.729675 197.746384,372.326447 
	C195.870865,373.039337 194.585861,375.305878 193.023331,377.178955 
	C180.655594,377.583984 168.291000,377.660583 155.480911,377.299377 
	C156.503296,375.683411 157.800919,374.094727 159.470291,373.402435 
	C164.983215,371.116180 170.624893,369.138824 176.227020,367.069641 
	C210.469681,354.421997 244.731842,341.826599 278.929504,329.058502 
	C281.836395,327.973206 284.319305,325.752350 287.391052,324.000244 
	C291.197052,322.507111 294.774536,321.361816 297.976807,319.552368 
	C300.853027,317.927155 302.212646,314.965363 299.885803,312.090454 
	C298.513519,310.394989 296.006195,309.618225 293.201660,307.946991 
	C293.104645,308.231628 293.489807,307.101746 293.874969,305.971832 
	C297.608856,304.981049 301.342712,303.990234 305.530365,303.450806 
	C306.445953,308.160828 306.371979,312.567230 307.495850,316.643372 
	C309.160004,322.678772 314.042145,325.746155 319.650696,323.493347 
	C323.589752,321.911133 326.556061,317.907043 330.137451,314.991882 
	C330.318115,314.999329 330.679749,315.006989 330.729370,315.323669 
	C331.251007,317.740173 331.723022,319.839996 332.195007,321.939850 
z"/>
<path fill="#A5D6A5" opacity="1.000000" stroke="none" 
	d="
M286.999176,324.059021 
	C284.319305,325.752350 281.836395,327.973206 278.929504,329.058502 
	C244.731842,341.826599 210.469681,354.421997 176.227020,367.069641 
	C170.624893,369.138824 164.983215,371.116180 159.470291,373.402435 
	C157.800919,374.094727 156.503296,375.683411 155.027237,377.188660 
	C143.315979,377.599121 131.612900,377.682495 119.452469,377.643677 
	C120.156700,376.117035 121.040291,373.998871 122.523796,373.421082 
	C134.393997,368.797913 146.388229,364.494354 158.323914,360.037872 
	C173.686279,354.301910 189.037155,348.535034 204.378998,342.744415 
	C221.722809,336.198181 239.051147,329.610931 257.159149,323.037079 
	C268.793365,325.784637 272.941162,322.966156 271.577087,313.948883 
	C274.244904,313.265930 276.561462,312.633453 278.941101,312.432068 
	C279.328644,321.951874 279.340485,321.968475 286.999176,324.059021 
z"/>
<path fill="#A3D4A5" opacity="1.000000" stroke="none" 
	d="
M405.902588,276.364868 
	C405.930298,275.819580 405.958038,275.274261 406.235138,274.109375 
	C407.626221,272.906708 408.767914,272.323669 409.909607,271.740662 
	C411.374542,271.935394 413.048279,272.694824 414.273621,272.241638 
	C439.727936,262.827484 465.120056,253.245270 490.553772,243.775024 
	C496.108582,241.706680 501.776031,239.940903 507.801392,238.055145 
	C505.420319,247.917297 502.629456,257.760101 499.273743,267.752319 
	C496.984802,268.023987 495.120605,267.762878 493.560486,268.333435 
	C485.996063,271.099823 478.565857,274.236725 470.981903,276.945007 
	C466.361755,278.594849 461.549164,279.705872 456.524902,280.897339 
	C450.679932,274.884399 443.483093,275.875824 436.616272,276.366486 
	C429.709930,276.859955 423.812653,279.914398 421.092804,286.611084 
	C419.532104,290.453796 419.299835,294.836029 418.102661,298.985352 
	C415.227814,299.328217 412.719818,299.661163 410.198486,299.602722 
	C410.787170,294.833038 411.675354,290.470093 411.910950,286.072205 
	C412.147156,281.663361 410.369659,278.073883 405.902588,276.364868 
z"/>
<path fill="#ACD9A2" opacity="1.000000" stroke="none" 
	d="
M174.189438,171.382263 
	C172.628113,177.243851 166.739548,177.586227 162.661819,179.763718 
	C147.455963,187.883636 131.918259,195.386551 116.449547,203.008286 
	C104.834755,208.731140 93.134918,214.281357 81.081299,219.897888 
	C82.886353,211.741684 85.083054,203.596054 87.932892,195.207504 
	C92.039207,193.455353 95.554764,192.073044 98.933746,190.412796 
	C108.694168,185.617035 118.455902,180.817383 128.098663,175.791946 
	C131.905624,173.807907 135.399429,171.222946 139.365814,169.072845 
	C141.535889,169.948471 143.320404,170.916122 145.225540,171.334320 
	C154.533600,173.377640 158.284348,171.284286 161.186600,162.173462 
	C162.896027,156.807205 164.164581,151.300507 165.631424,145.856979 
	C167.398514,151.607544 169.221405,157.553345 168.612671,163.238800 
	C168.044464,168.545761 169.533966,170.562073 174.189438,171.382263 
z"/>
<path fill="#96CDAA" opacity="1.000000" stroke="none" 
	d="
M370.107544,209.563919 
	C369.862091,210.206192 369.670654,210.481277 368.955841,210.586685 
	C357.619720,210.295441 346.806976,210.173874 335.526123,210.040375 
	C322.705322,210.019791 310.352661,210.011108 298.000000,210.002441 
	C300.683533,207.997635 303.142487,205.546875 306.088531,204.063400 
	C320.633484,196.739304 335.308441,189.673477 349.935394,182.512192 
	C360.434082,177.372070 370.929413,172.225113 381.805939,167.071747 
	C378.177612,181.107101 374.169586,195.151917 370.107544,209.563919 
z"/>
<path fill="#B2DDA0" opacity="1.000000" stroke="none" 
	d="
M137.557205,320.735809 
	C125.681831,325.333405 113.809120,329.937897 101.929939,334.525635 
	C96.234947,336.725006 90.547516,338.947357 84.808571,341.026550 
	C83.713509,341.423279 82.393120,341.197998 80.949203,340.939056 
	C83.570778,330.231506 86.419838,319.844604 89.514183,309.195862 
	C98.144775,306.137421 106.559120,303.423950 114.904182,300.511963 
	C119.679474,298.845612 124.342064,296.856293 129.468323,295.467468 
	C129.669800,305.050537 129.335144,314.216675 137.557205,320.735809 
z"/>
<path fill="#B1DDA1" opacity="1.000000" stroke="none" 
	d="
M139.035843,168.911591 
	C135.399429,171.222946 131.905624,173.807907 128.098663,175.791946 
	C118.455902,180.817383 108.694168,185.617035 98.933746,190.412796 
	C95.554764,192.073044 92.039207,193.455353 88.192818,194.942627 
	C90.692787,184.788925 93.585968,174.657181 97.126801,164.261307 
	C99.791183,163.358337 101.911072,162.938385 103.807579,162.044479 
	C114.538322,156.986786 125.215538,151.815506 136.076096,146.987030 
	C138.252640,154.358383 140.767075,161.360596 139.035843,168.911591 
z"/>
<path fill="#9ED1A6" opacity="1.000000" stroke="none" 
	d="
M456.823029,281.058929 
	C461.549164,279.705872 466.361755,278.594849 470.981903,276.945007 
	C478.565857,274.236725 485.996063,271.099823 493.560486,268.333435 
	C495.120605,267.762878 496.984802,268.023987 499.073883,268.051208 
	C497.169952,276.304474 494.900970,284.408295 492.388611,292.771667 
	C488.721954,294.025848 485.225342,294.821808 481.889526,296.053223 
	C472.673462,299.455444 463.524597,303.039581 453.768402,306.794495 
	C452.393707,307.214081 451.556946,307.284454 450.812134,307.583649 
	C437.642548,312.874481 433.312134,309.558990 435.081238,295.403015 
	C435.351410,293.241058 435.255402,290.627167 438.801666,290.659943 
	C442.101105,290.690430 443.811462,292.130432 443.789795,295.335846 
	C443.769226,298.376556 444.866852,299.951843 448.107086,299.919281 
	C451.078522,299.889404 454.075867,299.797913 454.730194,296.208191 
	C455.643494,291.197754 456.145203,286.112305 456.823029,281.058929 
z"/>
<path fill="#A1D3A6" opacity="1.000000" stroke="none" 
	d="
M361.631287,118.097351 
	C368.679443,114.913979 375.738678,111.754845 382.772400,108.539909 
	C388.919464,105.730232 395.037811,102.857780 401.540863,100.007652 
	C398.816010,110.836098 395.719147,121.669968 392.373962,132.763962 
	C389.232086,134.030838 386.255554,134.849213 383.461212,136.080963 
	C376.180206,139.290436 368.979065,142.681152 361.310364,145.533142 
	C361.126892,136.076920 361.379089,127.087128 361.631287,118.097351 
z"/>
<path fill="#C3E7A4" opacity="1.000000" stroke="none" 
	d="
M173.574982,58.293346 
	C172.707916,59.924500 171.673233,62.017311 170.004044,62.874397 
	C155.696945,70.220680 141.278015,77.349304 126.884453,84.526863 
	C124.533798,85.699036 122.143745,86.792191 119.417793,87.963760 
	C121.610451,78.910690 124.027664,69.775040 126.856422,60.768654 
	C127.240250,59.546597 129.677048,58.231133 131.178238,58.213207 
	C145.154694,58.046322 159.134430,58.154018 173.574982,58.293346 
z"/>
<path fill="#B5E0A0" opacity="1.000000" stroke="none" 
	d="
M135.910980,146.682907 
	C125.215538,151.815506 114.538322,156.986786 103.807579,162.044479 
	C101.911072,162.938385 99.791183,163.358337 97.379471,163.995880 
	C99.114594,156.449203 101.244690,148.903824 103.821945,141.360275 
	C106.790192,140.437592 109.361359,139.629059 111.822678,138.566147 
	C118.415848,135.718918 124.961952,132.762711 131.698929,130.159515 
	C133.217743,135.873795 134.564362,141.278351 135.910980,146.682907 
z"/>
<path fill="#B7E19E" opacity="1.000000" stroke="none" 
	d="
M131.526749,129.849792 
	C124.961952,132.762711 118.415848,135.718918 111.822678,138.566147 
	C109.361359,139.629059 106.790192,140.437592 104.066849,141.082642 
	C105.652832,134.349808 107.441086,127.896446 109.456650,121.178902 
	C114.503967,118.946175 119.323952,116.977638 124.445786,115.366631 
	C125.560562,118.782120 125.516525,123.559616 127.388481,124.492531 
	C130.154205,125.870865 130.765152,127.598618 131.526749,129.849792 
z"/>
<path fill="#B2DDA0" opacity="1.000000" stroke="none" 
	d="
M362.000000,226.001953 
	C360.709198,227.137253 359.603302,228.764313 358.098389,229.330170 
	C345.846741,233.936920 333.496704,238.281204 321.222809,242.829941 
	C305.416199,248.687927 289.645325,254.642700 273.872437,260.591187 
	C262.109283,265.027466 250.364441,269.512451 238.624725,274.010376 
	C238.064270,274.225098 237.632370,274.775299 236.682632,275.592499 
	C233.209045,277.032166 230.193420,278.048645 226.779495,279.050415 
	C220.272293,280.690491 214.163391,282.345245 207.933044,283.618347 
	C206.950485,277.775269 203.004562,279.946136 200.111954,280.367584 
	C194.607712,281.169556 191.484436,277.875031 192.932327,272.004639 
	C196.554596,272.913635 200.181396,273.823761 204.762161,274.973267 
	C205.367981,270.791382 205.920944,266.974518 206.473877,263.157654 
	C212.340378,261.585327 218.357620,260.428162 224.045303,258.363281 
	C241.584244,251.995773 258.988495,245.258102 276.463623,238.713684 
	C283.595306,236.042892 290.829681,233.637314 297.899506,230.815796 
	C300.097900,229.938446 301.909119,228.090912 304.377838,226.337677 
	C306.574371,225.966736 308.290649,225.945679 310.474548,225.945282 
	C327.961426,225.977966 344.980713,225.989960 362.000000,226.001953 
z"/>
<path fill="#464646" opacity="1.000000" stroke="none" 
	d="
M206.330643,262.835205 
	C205.920944,266.974518 205.367981,270.791382 204.762161,274.973267 
	C200.181396,273.823761 196.554596,272.913635 192.932327,272.004639 
	C191.484436,277.875031 194.607712,281.169556 200.111954,280.367584 
	C203.004562,279.946136 206.950485,277.775269 207.878143,284.035583 
	C207.503799,287.275024 207.877304,290.825562 206.426651,291.889984 
	C204.369827,293.399139 200.968857,293.076385 197.140121,293.699615 
	C197.140121,300.735138 197.140121,307.864563 197.140121,314.994019 
	C196.402008,320.701874 195.973846,326.472748 194.830154,332.098145 
	C193.872101,336.810516 190.227631,339.373962 185.577133,339.736938 
	C180.923615,340.100128 175.899643,340.762177 172.691589,335.325867 
	C172.521851,334.838684 172.562256,334.676300 172.582718,334.511475 
	C173.566452,326.589783 173.898178,326.321564 182.182220,327.033173 
	C182.182220,315.837830 182.182220,304.682159 182.182220,293.807953 
	C179.790405,292.874084 178.110825,292.218323 176.190659,291.280640 
	C174.132935,284.238464 174.132935,284.238464 181.949249,281.452393 
	C180.779633,279.649658 179.507065,277.993805 178.557159,276.169952 
	C174.913895,269.174774 177.687698,261.648071 185.380463,260.251465 
	C191.418991,259.155182 197.829559,260.014984 204.066986,260.231812 
	C204.799316,260.257233 205.481796,261.717590 206.330643,262.835205 
z"/>
<path fill="#464646" opacity="1.000000" stroke="none" 
	d="
M137.884644,320.837219 
	C129.335144,314.216675 129.669800,305.050537 129.836090,295.458984 
	C132.324768,278.973572 147.411041,271.094177 161.934479,278.256012 
	C167.334030,280.918671 169.509369,285.834595 170.910980,291.675415 
	C170.972626,297.103149 171.583206,302.372070 170.548996,307.295532 
	C167.446259,322.066559 152.787445,328.053284 137.884644,320.837219 
M155.047760,295.878540 
	C155.022400,292.533081 153.755936,290.581940 149.990021,290.743225 
	C146.346283,290.899323 146.184067,293.682404 146.078903,295.996307 
	C145.899139,299.951691 146.243912,303.936432 146.470490,307.903015 
	C146.642273,310.910583 148.905762,312.053223 151.262360,311.500031 
	C152.697159,311.163239 154.536026,309.188995 154.762375,307.728485 
	C155.316452,304.153015 155.040009,300.448822 155.047760,295.878540 
z"/>
<path fill="#9ED684" opacity="1.000000" stroke="none" 
	d="
M252.999313,210.004852 
	C260.352142,210.013687 267.704987,210.022522 275.518982,210.414368 
	C274.581177,211.926025 273.345978,213.439209 271.754883,214.116974 
	C264.810028,217.075272 257.723969,219.702805 250.787888,222.680298 
	C249.613907,223.184219 248.923706,224.815063 248.009995,225.925262 
	C239.985901,225.945969 231.961807,225.966660 223.469162,225.992340 
	C209.391449,225.992172 195.782059,226.023392 182.173340,225.943939 
	C180.055618,225.931580 177.940826,225.414047 175.452637,224.712341 
	C176.326935,223.389282 177.453476,222.182663 178.840485,221.631271 
	C184.648254,219.322433 190.635559,217.437622 196.334229,214.897476 
	C198.231445,214.051804 199.462051,211.710587 201.441589,210.040787 
	C204.257523,210.020233 206.629227,210.011978 209.469513,210.006439 
	C224.291809,210.007721 238.645569,210.006287 252.999313,210.004852 
z"/>
<path fill="#98D286" opacity="1.000000" stroke="none" 
	d="
M248.477295,225.945358 
	C248.923706,224.815063 249.613907,223.184219 250.787888,222.680298 
	C257.723969,219.702805 264.810028,217.075272 271.754883,214.116974 
	C273.345978,213.439209 274.581177,211.926025 275.987061,210.427063 
	C283.016876,210.040985 290.039886,210.025208 297.531433,210.005936 
	C310.352661,210.011108 322.705322,210.019791 335.520111,210.406418 
	C334.312134,212.150711 332.838074,213.961533 330.935486,214.800690 
	C325.048859,217.397034 318.937347,219.484680 313.059753,222.099350 
	C311.736725,222.687897 311.008820,224.614151 310.006958,225.924606 
	C308.290649,225.945679 306.574371,225.966736 304.429016,225.992767 
	C285.648193,225.986969 267.296387,225.976212 248.477295,225.945358 
z"/>
<path fill="#A3D4A5" opacity="1.000000" stroke="none" 
	d="
M209.000946,210.003723 
	C206.629227,210.011978 204.257523,210.020233 200.973404,210.025757 
	C184.040878,210.015732 168.020737,210.008484 152.000610,210.001221 
	C155.309937,207.717712 158.406677,205.011765 161.964218,203.221512 
	C180.494659,193.896561 199.156952,184.833817 217.718689,175.570343 
	C219.051880,174.905014 219.948776,173.365524 221.543747,171.908661 
	C237.344696,172.899185 244.864136,167.253952 248.132690,151.994934 
	C250.736450,151.661743 253.340210,151.328552 256.417358,151.455688 
	C256.910492,155.569580 256.825500,159.227402 256.973969,162.875748 
	C257.212799,168.745941 260.728180,172.387039 266.575806,171.711578 
	C270.179871,171.295258 273.730164,169.449615 277.041595,167.737167 
	C280.284912,166.059906 279.380585,162.985687 278.491943,160.246460 
	C277.418152,156.936600 275.040588,158.038086 272.771912,158.620728 
	C271.959900,158.829269 271.049316,158.654160 269.024078,158.654160 
	C272.299133,153.344345 274.927460,148.777771 277.915649,144.460236 
	C278.632202,143.424942 280.708008,142.492203 281.879822,142.755157 
	C286.983276,143.900421 289.423859,142.234268 289.402649,136.927689 
	C289.396057,135.285324 289.813232,133.641251 290.036407,131.997971 
	C291.437775,131.667999 292.839142,131.338028 294.666199,131.468842 
	C295.028839,143.286194 294.965759,154.642746 294.531860,166.005646 
	C279.043488,173.260666 263.901428,180.458771 248.817215,187.776215 
	C239.126144,192.477402 229.422928,197.171738 219.923218,202.240372 
	C216.014496,204.325912 212.626053,207.386597 209.000946,210.003723 
z"/>
<path fill="#464746" opacity="1.000000" stroke="none" 
	d="
M248.081818,151.534134 
	C244.864136,167.253952 237.344696,172.899185 221.604340,171.522812 
	C212.384033,169.886093 209.014282,163.424591 206.928757,154.962830 
	C207.548294,147.442062 208.230713,140.706055 208.913132,133.970062 
	C213.917664,125.302597 221.976852,123.513222 231.549850,124.100487 
	C244.327301,127.857170 247.963562,132.858276 248.012360,146.105225 
	C248.018463,147.761261 248.024750,149.417297 248.081818,151.534134 
M227.474777,138.809250 
	C226.034882,139.801514 223.436630,140.705719 223.353378,141.801102 
	C222.970032,146.844818 223.126160,151.953873 223.500870,157.008926 
	C223.569962,157.940979 225.443359,159.200958 226.662903,159.456848 
	C227.894318,159.715256 230.516953,158.954071 230.530258,158.570282 
	C230.748367,152.272903 230.679230,145.963821 230.525101,139.661026 
	C230.518204,139.379211 229.092438,139.132095 227.474777,138.809250 
z"/>
<path fill="#464746" opacity="1.000000" stroke="none" 
	d="
M289.945770,131.622772 
	C289.813232,133.641251 289.396057,135.285324 289.402649,136.927689 
	C289.423859,142.234268 286.983276,143.900421 281.879822,142.755157 
	C280.708008,142.492203 278.632202,143.424942 277.915649,144.460236 
	C274.927460,148.777771 272.299133,153.344345 269.024078,158.654160 
	C271.049316,158.654160 271.959900,158.829269 272.771912,158.620728 
	C275.040588,158.038086 277.418152,156.936600 278.491943,160.246460 
	C279.380585,162.985687 280.284912,166.059906 277.041595,167.737167 
	C273.730164,169.449615 270.179871,171.295258 266.575806,171.711578 
	C260.728180,172.387039 257.212799,168.745941 256.973969,162.875748 
	C256.825500,159.227402 256.910492,155.569580 256.815826,151.453796 
	C256.820038,148.012466 256.975800,145.032364 256.937927,142.054718 
	C256.924103,140.968475 256.773743,139.220413 256.134521,138.910248 
	C250.841019,136.341858 251.520966,131.697586 252.609894,127.576820 
	C253.360992,124.734550 262.100708,123.200302 265.911346,124.692009 
	C270.967529,126.671280 271.316528,130.772446 270.570587,135.331055 
	C270.551117,135.450012 270.737732,135.602692 271.196625,136.296982 
	C272.339508,133.689438 273.208862,131.306534 274.391052,129.090530 
	C276.980225,124.237068 281.880615,122.430397 286.545288,125.221115 
	C288.242798,126.236679 288.785522,129.182465 289.945770,131.622772 
z"/>
<path fill="#464646" opacity="1.000000" stroke="none" 
	d="
M294.902710,165.999313 
	C294.965759,154.642746 295.028839,143.286194 295.030762,131.464020 
	C294.969635,127.877831 294.969635,124.757263 294.969635,121.211296 
	C291.268921,120.993011 289.935638,119.228699 289.891235,115.330956 
	C289.844635,111.236328 291.913544,109.792526 294.955353,108.484406 
	C303.482513,104.817352 310.376678,107.518906 312.201691,115.618523 
	C311.237030,127.720383 310.166077,139.448364 309.030792,151.962936 
	C308.657379,154.413620 308.348297,156.077713 308.218536,156.776398 
	C310.960419,157.487640 313.631927,157.401657 314.756317,158.678314 
	C316.032928,160.127823 317.023224,163.441727 316.215881,164.815369 
	C313.686127,169.119492 309.431335,171.587875 304.305908,171.847748 
	C299.939789,172.069092 296.614868,170.234848 294.902710,165.999313 
z"/>
<path fill="#464746" opacity="1.000000" stroke="none" 
	d="
M131.698929,130.159515 
	C130.765152,127.598618 130.154205,125.870865 127.388481,124.492531 
	C125.516525,123.559616 125.560562,118.782120 124.816818,115.358856 
	C128.649811,113.300423 132.413635,111.607292 136.586807,109.856155 
	C142.950745,110.362946 145.832565,114.463371 146.867691,119.577774 
	C148.608322,128.177841 149.731354,136.906357 150.988312,145.599060 
	C151.456970,148.840088 151.572556,152.132187 153.056229,155.442276 
	C154.400909,145.039261 155.745605,134.636230 157.136948,123.872353 
	C152.102081,123.731934 151.068573,120.889336 150.978989,116.946091 
	C150.877228,112.468185 154.411377,111.946053 157.210098,111.053345 
	C163.519272,109.040909 169.679214,108.897072 174.892303,115.153748 
	C177.138321,129.053848 179.072815,142.298920 181.007309,155.544006 
	C181.345764,155.543777 181.684219,155.543533 182.022675,155.543304 
	C183.422272,145.079681 184.821869,134.616074 186.268097,123.803848 
	C179.641739,123.520065 180.824158,118.761711 180.204941,115.074341 
	C183.553085,113.389832 186.901245,111.705315 190.622711,109.932419 
	C201.734390,110.246918 204.283005,113.330154 203.045670,124.380890 
	C202.680817,127.639404 202.366943,130.903625 201.876160,134.918152 
	C199.196777,143.447906 196.670929,151.224777 194.145081,159.001633 
	C193.505188,160.145477 192.843384,161.277695 192.228867,162.435013 
	C187.327393,171.665527 185.530014,172.624512 174.620605,171.475189 
	C169.533966,170.562073 168.044464,168.545761 168.612671,163.238800 
	C169.221405,157.553345 167.398514,151.607544 165.631424,145.856979 
	C164.164581,151.300507 162.896027,156.807205 161.186600,162.173462 
	C158.284348,171.284286 154.533600,173.377640 145.225540,171.334320 
	C143.320404,170.916122 141.535889,169.948471 139.365814,169.072845 
	C140.767075,161.360596 138.252640,154.358383 136.076096,146.987030 
	C134.564362,141.278351 133.217743,135.873795 131.698929,130.159515 
z"/>
<path fill="#A8D7A3" opacity="1.000000" stroke="none" 
	d="
M194.528809,159.000412 
	C196.670929,151.224777 199.196777,143.447906 201.903473,135.334930 
	C204.100983,134.662308 206.117645,134.325806 208.523727,133.979675 
	C208.230713,140.706055 207.548294,147.442062 206.833237,154.591980 
	C202.837921,156.337006 198.875229,157.668091 194.528809,159.000412 
z"/>
<path fill="#464746" opacity="1.000000" stroke="none" 
	d="
M227.177811,279.065094 
	C230.193420,278.048645 233.209045,277.032166 236.612183,275.932983 
	C245.179199,276.951050 245.961868,278.128723 246.134720,289.595612 
	C252.220291,276.779449 254.175232,275.264496 263.360779,276.632629 
	C268.870392,279.759094 268.870392,279.759094 270.811401,289.834686 
	C275.544495,279.512848 280.797211,271.056824 293.313965,279.516388 
	C297.862518,288.176819 295.823975,296.672485 293.900085,305.569092 
	C293.489807,307.101746 293.104645,308.231628 293.201660,307.946991 
	C296.006195,309.618225 298.513519,310.394989 299.885803,312.090454 
	C302.212646,314.965363 300.853027,317.927155 297.976807,319.552368 
	C294.774536,321.361816 291.197052,322.507111 287.391052,324.000244 
	C279.340485,321.968475 279.328644,321.951874 279.012970,311.977142 
	C279.021790,305.450714 279.021790,299.810303 279.021790,292.751068 
	C274.959808,300.238312 271.455139,306.482483 271.225830,313.999390 
	C272.941162,322.966156 268.793365,325.784637 257.534607,322.989929 
	C256.598907,317.074768 255.864243,311.211334 255.595367,305.326630 
	C255.431122,301.731659 255.982941,298.104034 256.234741,294.151825 
	C250.419891,297.994904 246.749237,308.619080 248.369080,315.818481 
	C249.627182,321.410156 248.554550,323.011322 243.010651,323.817352 
	C236.225128,324.803894 232.448975,322.826294 232.189911,317.895966 
	C231.945618,313.246643 232.026764,308.580200 231.961578,303.012512 
	C232.210876,298.338470 232.463348,294.573212 232.740662,290.437195 
	C227.877884,290.590149 227.497757,287.022522 227.158310,283.513824 
	C227.016235,282.045288 227.162582,280.548859 227.177811,279.065094 
z"/>
<path fill="#B1DCA3" opacity="1.000000" stroke="none" 
	d="
M226.779495,279.050415 
	C227.162582,280.548859 227.016235,282.045288 227.158310,283.513824 
	C227.497757,287.022522 227.877884,290.590149 232.740662,290.437195 
	C232.463348,294.573212 232.210876,298.338470 231.894043,302.548553 
	C223.633850,305.960022 215.446228,308.949554 207.238022,311.881439 
	C204.152924,312.983368 201.020020,313.951416 197.524521,314.987244 
	C197.140121,307.864563 197.140121,300.735138 197.140121,293.699615 
	C200.968857,293.076385 204.369827,293.399139 206.426651,291.889984 
	C207.877304,290.825562 207.503799,287.275024 207.999603,284.417236 
	C214.163391,282.345245 220.272293,280.690491 226.779495,279.050415 
z"/>
<path fill="#464746" opacity="1.000000" stroke="none" 
	d="
M456.524902,280.897339 
	C456.145203,286.112305 455.643494,291.197754 454.730194,296.208191 
	C454.075867,299.797913 451.078522,299.889404 448.107086,299.919281 
	C444.866852,299.951843 443.769226,298.376556 443.789795,295.335846 
	C443.811462,292.130432 442.101105,290.690430 438.801666,290.659943 
	C435.255402,290.627167 435.351410,293.241058 435.081238,295.403015 
	C433.312134,309.558990 437.642548,312.874481 450.812134,307.583649 
	C451.556946,307.284454 452.393707,307.214081 453.567688,307.102600 
	C458.303070,314.688049 458.014465,315.736542 450.566467,320.487061 
	C441.091064,326.530640 426.642853,324.327637 421.217499,312.814575 
	C420.092010,307.809967 419.280762,303.392700 418.469543,298.975403 
	C419.299835,294.836029 419.532104,290.453796 421.092804,286.611084 
	C423.812653,279.914398 429.709930,276.859955 436.616272,276.366486 
	C443.483093,275.875824 450.679932,274.884399 456.524902,280.897339 
z"/>
<path fill="#464746" opacity="1.000000" stroke="none" 
	d="
M405.472229,276.303040 
	C410.369659,278.073883 412.147156,281.663361 411.910950,286.072205 
	C411.675354,290.470093 410.787170,294.833038 410.083954,299.978394 
	C409.273071,303.688507 408.563385,306.631561 407.497711,311.050934 
	C413.429565,306.817566 414.336945,311.113678 416.043701,313.998535 
	C415.005066,319.921906 409.701202,323.609589 401.415283,323.906982 
	C395.666534,322.945221 394.458435,318.957092 394.155273,314.391083 
	C394.034210,312.567963 394.162201,310.728241 394.212463,308.044373 
	C394.604675,301.617767 394.961212,296.042938 395.284210,290.992157 
	C393.134888,289.758087 391.593201,288.872925 390.051514,287.987762 
	C388.524994,279.164612 393.256409,275.457062 405.472229,276.303040 
z"/>
<path fill="#9ED1A6" opacity="1.000000" stroke="none" 
	d="
M416.408966,313.994507 
	C414.336945,311.113678 413.429565,306.817566 407.497711,311.050934 
	C408.563385,306.631561 409.273071,303.688507 410.097290,300.369812 
	C412.719818,299.661163 415.227814,299.328217 418.102661,298.985352 
	C419.280762,303.392700 420.092010,307.809967 420.948486,312.614716 
	C419.587219,313.331604 418.180725,313.661041 416.408966,313.994507 
z"/>
<path fill="#464746" opacity="1.000000" stroke="none" 
	d="
M329.956757,314.984436 
	C326.556061,317.907043 323.589752,321.911133 319.650696,323.493347 
	C314.042145,325.746155 309.160004,322.678772 307.495850,316.643372 
	C306.371979,312.567230 306.445953,308.160828 305.917877,303.448273 
	C305.978363,300.175415 306.444550,297.315186 306.108612,294.552460 
	C305.896210,292.805420 304.081970,291.290375 303.703705,289.518127 
	C303.033234,286.376465 301.489471,282.181915 302.857697,280.107910 
	C305.531586,276.054688 310.660217,275.459656 315.481842,276.299927 
	C319.857422,277.062439 322.599121,279.613373 323.043396,285.068665 
	C322.406372,293.096954 321.770477,300.292633 321.099670,307.883759 
	C326.377655,305.882355 330.188324,300.469177 330.142670,295.554749 
	C330.125519,293.713165 329.700470,290.395081 329.043427,290.286835 
	C325.517639,289.705841 326.409607,287.012268 325.856079,284.996948 
	C325.444489,278.222198 329.584290,276.394043 336.211426,276.102478 
	C338.159546,276.016785 340.137207,276.601227 342.490356,276.959290 
	C349.142883,281.520569 347.123901,287.968384 346.682617,293.905640 
	C346.428772,297.320557 345.389832,300.677094 344.621643,304.475098 
	C344.288055,305.989349 344.037140,307.088348 343.786255,308.187378 
	C344.188416,307.985962 344.590546,307.784515 344.992706,307.583099 
	C346.661041,309.706757 349.564972,311.777802 349.658203,313.968475 
	C349.755920,316.265137 347.644806,319.280823 345.630798,320.906799 
	C341.905640,323.914337 337.477753,325.379700 332.527191,322.079285 
	C331.723022,319.839996 331.251007,317.740173 330.817627,315.033508 
	C330.717224,314.083923 330.578186,313.741150 330.439178,313.398376 
	C330.278351,313.927063 330.117554,314.455750 329.956757,314.984436 
z"/>
<path fill="#A7D7A4" opacity="1.000000" stroke="none" 
	d="
M325.520813,284.997925 
	C326.409607,287.012268 325.517639,289.705841 329.043427,290.286835 
	C329.700470,290.395081 330.125519,293.713165 330.142670,295.554749 
	C330.188324,300.469177 326.377655,305.882355 321.099670,307.883759 
	C321.770477,300.292633 322.406372,293.096954 323.107971,285.448608 
	C323.844330,284.996918 324.514923,284.997925 325.520813,284.997925 
z"/>
<path fill="#B2DDA0" opacity="1.000000" stroke="none" 
	d="
M179.775146,115.051880 
	C180.824158,118.761711 179.641739,123.520065 186.268097,123.803848 
	C184.821869,134.616074 183.422272,145.079681 182.022675,155.543304 
	C181.684219,155.543533 181.345764,155.543777 181.007309,155.544006 
	C179.072815,142.298920 177.138321,129.053848 175.133606,115.403534 
	C176.490707,115.008667 177.918015,115.019035 179.775146,115.051880 
z"/>
<path fill="#464746" opacity="1.000000" stroke="none" 
	d="
M363.907410,323.735535 
	C361.533325,322.884216 359.531586,322.120514 357.634949,321.151276 
	C354.127655,319.359070 353.251495,316.412384 354.379425,312.803131 
	C355.359039,309.668274 356.887512,308.201752 360.616852,309.695892 
	C364.335510,311.185730 368.428680,311.740753 372.357666,312.705658 
	C372.498962,312.313507 372.640289,311.921356 372.781586,311.529205 
	C367.102509,307.674011 361.423401,303.818848 355.464844,299.749847 
	C349.151917,286.489288 355.741913,276.025696 370.012695,276.041901 
	C372.331512,276.044525 374.674255,276.072021 376.964539,276.388062 
	C386.147186,277.655212 386.141144,277.698883 385.714325,287.792419 
	C384.569458,290.365295 383.656494,292.231934 382.707733,294.171844 
	C378.278687,292.545837 374.422089,291.037842 370.491394,289.757202 
	C369.603027,289.467773 368.456940,289.969421 367.429504,290.106964 
	C367.912018,291.179230 368.105286,292.723907 368.933746,293.231140 
	C371.035797,294.518158 373.445312,295.292206 375.690796,296.357880 
	C381.246857,298.994690 386.193024,302.213745 387.206390,309.000092 
	C386.453094,318.304688 381.549805,323.093750 371.806183,323.833527 
	C369.330048,324.021545 366.821075,323.776489 363.907410,323.735535 
z"/>
<path fill="#A0D2A5" opacity="1.000000" stroke="none" 
	d="
M387.592468,308.999023 
	C386.193024,302.213745 381.246857,298.994690 375.690796,296.357880 
	C373.445312,295.292206 371.035797,294.518158 368.933746,293.231140 
	C368.105286,292.723907 367.912018,291.179230 367.429504,290.106964 
	C368.456940,289.969421 369.603027,289.467773 370.491394,289.757202 
	C374.422089,291.037842 378.278687,292.545837 382.707733,294.171844 
	C383.656494,292.231934 384.569458,290.365295 385.716980,288.244385 
	C387.044830,287.991882 388.138123,287.993652 389.641449,287.991577 
	C391.593201,288.872925 393.134888,289.758087 395.284210,290.992157 
	C394.961212,296.042938 394.604675,301.617767 394.153870,307.596680 
	C392.032593,308.333130 390.005554,308.665527 387.592468,308.999023 
z"/>
<path fill="#464646" opacity="1.000000" stroke="none" 
	d="
M410.078217,271.422729 
	C408.767914,272.323669 407.626221,272.906708 406.241333,273.699829 
	C402.659515,273.332886 398.814758,273.565979 396.153870,271.903870 
	C394.270844,270.727631 392.903778,266.794312 393.319580,264.448669 
	C393.685852,262.382355 396.569977,260.023193 398.842621,259.233429 
	C401.314026,258.374603 404.496063,258.670898 407.130859,259.364838 
	C411.990631,260.644836 413.186310,265.786316 410.078217,271.422729 
z"/>
<path fill="#A6DA83" opacity="1.000000" stroke="none" 
	d="
M151.531891,210.004456 
	C168.020737,210.008484 184.040878,210.015732 200.529205,210.038025 
	C199.462051,211.710587 198.231445,214.051804 196.334229,214.897476 
	C190.635559,217.437622 184.648254,219.322433 178.840485,221.631271 
	C177.453476,222.182663 176.326935,223.389282 175.037567,224.661011 
	C173.229401,225.348007 171.465073,225.941483 169.698944,225.946884 
	C151.470123,226.002609 133.241043,225.963333 114.556023,225.899963 
	C115.169998,221.716858 116.296097,217.597733 117.289940,213.446915 
	C117.937737,210.741348 119.440994,209.886246 122.248558,209.939285 
	C131.850433,210.120712 141.457870,210.008133 151.531891,210.004456 
z"/>
<path fill="#464646" opacity="1.000000" stroke="none" 
	d="
M361.461853,117.775383 
	C361.379089,127.087128 361.126892,136.076920 360.915924,145.533997 
	C360.564026,149.340210 360.170868,152.679092 359.671509,156.525452 
	C359.759644,157.074646 359.954041,157.116364 360.148438,157.158081 
	C361.996277,158.069534 364.524231,158.519257 365.530731,160.001877 
	C367.000244,162.166534 367.233826,165.036469 364.448792,167.007080 
	C363.234985,167.865906 362.175171,169.010681 360.862579,169.650284 
	C353.236725,173.366287 346.732056,174.081818 346.802704,162.531479 
	C344.315033,165.072876 341.881042,168.467682 338.630341,170.640640 
	C334.922485,173.119156 330.658478,172.150360 326.305786,169.513824 
	C320.246826,163.497543 320.301422,156.060684 319.201202,149.001328 
	C320.336761,143.691330 320.805664,138.120193 322.759979,133.130920 
	C325.896942,125.122520 332.756531,122.413452 341.078430,124.898773 
	C342.953949,125.458885 344.776062,126.197632 346.853821,126.936287 
	C347.450073,122.765999 347.714874,119.247414 341.971283,119.808960 
	C339.029297,120.096581 337.322113,118.388130 337.657898,115.742775 
	C337.949310,113.446800 338.903442,109.860626 340.408905,109.354187 
	C344.694733,107.912453 349.454071,107.013039 353.948242,107.271347 
	C359.781403,107.606628 360.651581,112.722038 361.461853,117.775383 
M336.379761,154.620804 
	C336.814178,155.763077 337.248566,156.905365 337.927338,158.690292 
	C342.084717,153.996017 346.201813,150.243362 346.311249,143.940506 
	C346.385162,139.683167 343.677124,139.266220 340.524048,138.871582 
	C336.945435,138.423706 336.229218,140.714050 336.125916,143.366104 
	C335.990814,146.835510 336.158081,150.316696 336.379761,154.620804 
z"/>
<path fill="#9ED1A6" opacity="1.000000" stroke="none" 
	d="
M318.813660,149.032501 
	C320.301422,156.060684 320.246826,163.497543 325.944153,169.386719 
	C324.575592,171.188187 323.297607,173.225662 321.459137,174.158539 
	C300.320862,184.884338 279.089417,195.426468 257.911896,206.075333 
	C256.199463,206.936417 254.701202,208.223450 253.051361,209.658691 
	C238.645569,210.006287 224.291809,210.007721 209.469513,210.006439 
	C212.626053,207.386597 216.014496,204.325912 219.923218,202.240372 
	C229.422928,197.171738 239.126144,192.477402 248.817215,187.776215 
	C263.901428,180.458771 279.043488,173.260666 294.531860,166.005646 
	C296.614868,170.234848 299.939789,172.069092 304.305908,171.847748 
	C309.431335,171.587875 313.686127,169.119492 316.215881,164.815369 
	C317.023224,163.441727 316.032928,160.127823 314.756317,158.678314 
	C313.631927,157.401657 310.960419,157.487640 308.218536,156.776398 
	C308.348297,156.077713 308.657379,154.413620 309.060608,152.372101 
	C312.245239,151.017685 315.335693,150.040680 318.813660,149.032501 
z"/>
<path fill="#93CF89" opacity="1.000000" stroke="none" 
	d="
M310.474548,225.945282 
	C311.008820,224.614151 311.736725,222.687897 313.059753,222.099350 
	C318.937347,219.484680 325.048859,217.397034 330.935486,214.800690 
	C332.838074,213.961533 334.312134,212.150711 335.988220,210.418335 
	C346.806976,210.173874 357.619720,210.295441 368.734985,210.710190 
	C367.999756,215.452988 367.086487,219.938904 365.808838,224.318497 
	C365.580627,225.100708 363.843109,225.442612 362.401245,225.994873 
	C344.980713,225.989960 327.961426,225.977966 310.474548,225.945282 
z"/>
<path fill="#A0D2A5" opacity="1.000000" stroke="none" 
	d="
M330.137451,314.991882 
	C330.117554,314.455750 330.278351,313.927063 330.439178,313.398376 
	C330.578186,313.741150 330.717224,314.083923 330.768005,314.716858 
	C330.679749,315.006989 330.318115,314.999329 330.137451,314.991882 
z"/>
<path fill="#A5D5A4" opacity="1.000000" stroke="none" 
	d="
M271.577087,313.948883 
	C271.455139,306.482483 274.959808,300.238312 279.021790,292.751068 
	C279.021790,299.810303 279.021790,305.450714 278.949921,311.546082 
	C276.561462,312.633453 274.244904,313.265930 271.577087,313.948883 
z"/>
<path fill="#B1DDA1" opacity="1.000000" stroke="none" 
	d="
M155.072784,296.337494 
	C155.040009,300.448822 155.316452,304.153015 154.762375,307.728485 
	C154.536026,309.188995 152.697159,311.163239 151.262360,311.500031 
	C148.905762,312.053223 146.642273,310.910583 146.470490,307.903015 
	C146.243912,303.936432 145.899139,299.951691 146.078903,295.996307 
	C146.184067,293.682404 146.346283,290.899323 149.990021,290.743225 
	C153.755936,290.581940 155.022400,292.533081 155.072784,296.337494 
z"/>
<path fill="#A5D5A4" opacity="1.000000" stroke="none" 
	d="
M227.901184,138.839035 
	C229.092438,139.132095 230.518204,139.379211 230.525101,139.661026 
	C230.679230,145.963821 230.748367,152.272903 230.530258,158.570282 
	C230.516953,158.954071 227.894318,159.715256 226.662903,159.456848 
	C225.443359,159.200958 223.569962,157.940979 223.500870,157.008926 
	C223.126160,151.953873 222.970032,146.844818 223.353378,141.801102 
	C223.436630,140.705719 226.034882,139.801514 227.901184,138.839035 
z"/>
<path fill="#9ED1A6" opacity="1.000000" stroke="none" 
	d="
M336.287506,154.206818 
	C336.158081,150.316696 335.990814,146.835510 336.125916,143.366104 
	C336.229218,140.714050 336.945435,138.423706 340.524048,138.871582 
	C343.677124,139.266220 346.385162,139.683167 346.311249,143.940506 
	C346.201813,150.243362 342.084717,153.996017 337.927338,158.690292 
	C337.248566,156.905365 336.814178,155.763077 336.287506,154.206818 
z"/>
<path fill="#9BCFA8" opacity="1.000000" stroke="none" 
	d="
M360.081696,157.089325 
	C359.954041,157.116364 359.759644,157.074646 359.720947,156.960388 
	C359.876678,156.887848 360.014954,157.020569 360.081696,157.089325 
z"/>
</svg>