<svg xmlns="http://www.w3.org/2000/svg" xmlns:xlink="http://www.w3.org/1999/xlink" viewBox="0,0,256,256" width="500px" height="500px" fill-rule="nonzero"><g fill="#ed8e19" fill-rule="nonzero" stroke="none" stroke-width="1" stroke-linecap="butt" stroke-linejoin="miter" stroke-miterlimit="10" stroke-dasharray="" stroke-dashoffset="0" font-family="none" font-weight="none" font-size="none" text-anchor="none" style="mix-blend-mode: normal"><g transform="scale(5.12,5.12)"><path d="M30,11c-3.60156,0 -7,1.78906 -9,4.6875v20.3125h21.5c4.10156,0 7.5,-3.39844 7.5,-7.5c0,-4.10156 -3.39844,-7.5 -7.5,-7.5c-0.5,0 -1,0.08594 -1.5,0.1875c-0.5,-5.69922 -5.19922,-10.1875 -11,-10.1875zM17,16c-0.69922,0 -1.39844,0.08594 -2,0.1875v19.8125h2zM18,16v20h2v-19.5c-0.60156,-0.19922 -1.30078,-0.39844 -2,-0.5zM14,16.5c-0.69922,0.30078 -1.39844,0.60156 -2,1v18.5h2zM11,18.3125c-0.80078,0.69922 -1.5,1.59375 -2,2.59375v15.09375h2zM6.5,22c-0.17578,0.01172 -0.35156,0.04297 -0.5,0.09375v13.8125c0.30078,0.10156 0.69922,0.09375 1,0.09375h1v-13.90625c-0.30078,-0.10156 -0.69922,-0.09375 -1,-0.09375c-0.14844,0 -0.32422,-0.01172 -0.5,0zM5,22.3125c-0.69922,0.19922 -1.39844,0.5 -2,1v11.375c0.60156,0.39844 1.30078,0.80078 2,1zM2,24.09375c-1.19922,1.30078 -2,3.00781 -2,4.90625c0,1.89844 0.80078,3.60547 2,4.90625z"></path></g></g></svg>